<?xml version="1.0" encoding="UTF-8"?>
<svg width="130px" height="34px" viewBox="0 0 130 34" version="1.1" xmlns="http://www.w3.org/2000/svg" xmlns:xlink="http://www.w3.org/1999/xlink">
	<title>Bally's</title>
  <path d="M105.781,3.469 C105.156,5.094 103.687,6.282 101.906,6.5 C102.17,5.909 102.324,5.219 102.324,4.493 C102.324,4.13 102.286,3.777 102.213,3.436 L102.219,3.469 L101.125,1.813 L101.469,1.813 C103.032,1.594 104.375,1.313 105.688,0.938 C106.407,1.469 105.438,2.626 105.438,3.469 L105.781,3.469 Z M7.875,15.531 C10.406,15.531 13.969,14.625 13.969,11.125 L13.969,10.969 C13.958,8.665 12.087,6.802 9.782,6.802 C9.573,6.802 9.367,6.817 9.165,6.847 L9.188,6.844 L6.594,7.188 L6.594,15.532 L7.875,15.531 Z M9.938,29.5 C10.242,29.561 10.591,29.596 10.949,29.596 C13.918,29.596 16.324,27.19 16.324,24.221 C16.324,24.099 16.32,23.979 16.312,23.859 L16.313,23.875 C16.234,20.692 13.635,18.141 10.44,18.141 C10.041,18.141 9.652,18.181 9.276,18.256 L9.314,18.25 L6.658,18.219 L6.658,28.907 L9.938,29.5 Z M2.719,10.5 C2.719,8.375 2.907,5.187 1,4.375 L10.031,4.375 C15.25,4.219 18.187,6.594 18.187,10.5 C18.156,13 16.562,15.156 14.343,16 C17.894,16.671 20.546,19.742 20.562,23.436 L20.562,23.563 C20.468,26.813 18.593,29.594 15.874,30.969 C13.784,31.908 11.344,32.456 8.776,32.456 C8.183,32.456 7.597,32.427 7.019,32.37 L7.092,32.376 L0.998,32.376 C2.904,31.563 2.717,28.501 2.717,26.407 L2.719,10.5 Z M32,7.938 L28.219,18.626 L35.813,18.626 L32,7.938 Z M27.25,21.844 L25.344,27.875 C24.5,30.188 24.219,31.469 26.063,32.281 L18.907,32.281 C20.845,30.781 22.188,28.656 22.626,26.187 L29.001,8.343 C29.595,6.843 30.282,5.03 28.438,4.374 L34.563,4.374 L42.532,26.218 C43.063,28.718 44.407,30.874 46.313,32.374 L38.407,32.374 C40.313,31.374 39.97,30.874 38.938,27.968 L36.844,21.843 L27.25,21.844 Z M57.969,29.5 L58.313,29.5 C60.813,29.5 63.063,28.5 64.719,26.875 L62.719,32.344 L46.813,32.344 C48.813,31.531 48.563,28.438 48.563,26.438 L48.563,10.25 C48.563,8.344 48.813,5.219 46.813,4.375 L54.219,4.375 C52.313,5.219 52.5,8.344 52.5,10.25 L52.5,28.875 L57.969,29.5 Z M75.719,29.5 L75.969,29.5 C78.5,29.5 80.813,28.5 82.532,26.875 L80.719,32.344 L64.938,32.344 C66.844,31.531 66.626,28.438 66.626,26.438 L66.626,10.25 C66.626,8.375 66.845,5.219 64.938,4.375 L72.219,4.375 C70.281,5.219 70.563,8.375 70.563,10.25 L70.563,28.875 L75.719,29.5 Z M91.219,26.781 C91.219,29.344 91.219,30.562 93.25,32.25 L85.781,32.25 C87.75,31.156 87.469,28.344 87.469,26.344 L87.469,20 L81.063,8.656 C80.25,6.843 79,5.343 77.438,4.312 L80.844,4.281 L81.313,4.25 C82.282,4.25 83.157,4.719 83.688,5.469 L89.876,16.625 L94.626,8.656 C95.282,7.562 96.157,5.562 93.907,4.375 L100.72,4.375 L91.22,20 L91.219,26.781 Z M119.281,9.344 C117.781,7.719 115.625,6.688 113.25,6.656 C111.062,6.656 108.5,7.562 108.5,10.594 C108.5,16.344 121.656,16.282 121.656,24.219 C121.305,29.178 117.196,33.068 112.178,33.068 C111.884,33.068 111.593,33.055 111.306,33.029 L111.343,33.032 L111.124,33.063 C108.718,33.063 106.436,32.594 104.311,31.782 L103.373,26.438 C105.529,28.594 108.498,29.969 111.811,30.063 C113.936,30.063 117.311,28.594 117.311,25.594 C117.311,18.938 104.061,20.125 104.061,11.063 C104.061,5.594 108.811,3.563 113.561,3.563 C115.624,3.563 117.592,3.938 119.436,4.563 L119.281,9.344 Z M126.281,29.969 C126.281,28.744 127.274,27.75 128.5,27.75 C129.726,27.75 130.719,28.743 130.719,29.969 C130.719,31.183 129.743,32.17 128.533,32.187 L128.531,32.187 L128.468,32.187 C128.468,32.187 128.468,32.187 128.468,32.187 C127.26,32.187 126.28,31.208 126.28,29.999 C126.28,29.988 126.28,29.977 126.28,29.966 L126.28,29.968 L126.281,29.969 Z M130.438,29.969 L130.438,29.906 C130.438,28.853 129.585,28 128.532,28 C127.479,28 126.626,28.853 126.626,29.906 C126.626,30.959 127.479,31.812 128.532,31.812 L128.532,31.812 C129.532,31.781 130.345,30.968 130.376,29.968 L130.438,29.969 Z M129.625,31.156 L129.187,31.156 L128.468,30 L128.062,30 L128.062,31.156 L127.718,31.156 L127.718,28.718 L128.749,28.718 C129.187,28.718 129.624,28.718 129.624,29.406 C129.624,30.094 129.28,30.062 128.843,30.062 L129.625,31.156 Z M128.438,29.5 C128.719,29.5 129.188,29.781 129.188,29.5 C129.188,29.219 128.844,29.187 128.625,29.187 L127.969,29.187 L127.969,29.5 L128.438,29.5 Z" id="ballys" fill="#343840"></path>
</svg>
