<?xml version="1.0" encoding="UTF-8"?>
<svg width="235px" height="112px" viewBox="0 0 235 112" version="1.1" xmlns="http://www.w3.org/2000/svg" xmlns:xlink="http://www.w3.org/1999/xlink">
	<title>Belle of Baton Rouge</title>
  <path d="M145.1,19.7 C145.1,22.2 144.8,24.6 144.2,27 C143.6,29.6 143,31 142.4,31 C142,31 141.8,30.8 141.8,30.4 C141.8,30.2 141.9,30 141.9,29.8 C143.1,26.7 143.7,23.4 143.6,20.1 C143.6,14.7 142,10.4 138.8,7.1 C135.6,3.8 131.4,2.2 126.2,2.2 C119.2,2.2 112,4.6 104.6,9.3 C110.6,13.7 113.6,18.9 113.5,24.8 C113.5,34.3 107,39.9 94.1,41.7 C104.7,45.4 110,52.2 110,62.1 C110,69.4 106.9,75.9 100.6,81.4 C94.6,86.8 86.8,89.8 78.7,89.7 C74.7,89.7 71.5,88.7 69.1,86.6 C66.7,84.5 65.4,81.4 65.6,78.2 C65.6,72.7 68.1,67.3 73.1,62 C78.1,56.7 83.2,54 88.2,54 C90.8,53.9 93.3,54.9 95.1,56.6 C96.9,58.4 97.9,60.9 97.8,63.4 C97.7,65.5 97.2,67.7 96.3,69.6 C95.3,72.1 94.5,73.3 93.9,73.3 C93.4,73.3 93.2,73.1 93.2,72.8 C93.2,72.5 93.3,72.3 93.5,72 C95.7,68.8 96.8,65.9 96.8,63.2 C96.9,61 96,58.9 94.4,57.3 C92.7,55.8 90.5,55 88.2,55.1 C83.4,55.1 78.7,57.6 74.1,62.7 C69.5,67.8 67.2,72.9 67.2,78.2 C67.1,80.8 68.2,83.4 70,85.2 C71.9,87.1 74.5,88.1 77.1,88 C83.6,88 89.5,84.8 94.9,78.5 C100.3,72.2 103,65.2 103,57.6 C103,50.5 99.6,45.3 92.9,42 L89.2,42.4 C88.2,42.5 87.2,42.6 86.2,42.6 C83,42.6 81.4,42.1 81.4,41.1 C81.4,40.3 82.8,40 85.4,40 C88,40.1 90.5,40.5 93,41.1 C97.2,39.9 100.9,37.4 103.5,34 C106.1,30.6 107.4,26.5 107.4,22.2 C107.3,17.8 105.5,13.7 102.4,10.6 C93.1,17.7 84.3,29.9 76,47 C71,57.6 66.4,65.3 62.2,70 C58.1,74.6 52.3,78.7 44.8,82.5 C35.8,86.8 27.9,89 20.9,89 C15.2,89 10.4,87.7 6.7,85 C2.9,82.4 1,79.1 1,75.2 C1,73.1 1.6,71.2 2.9,69.6 C4,68.1 5.7,67.2 7.5,67.2 C10.1,67.2 11.4,68.7 11.4,71.6 C11.4,73 11,74.3 10.1,75.3 C9.3,76.3 8.1,76.9 6.9,76.8 C4.7,76.8 3.6,75.6 3.7,73.3 C3.7,72.3 3.7,71.9 3.5,71.9 C2.8,71.9 2.5,73 2.5,75.3 C2.5,78.9 4.3,81.8 7.7,84.2 C11.1,86.6 15.6,87.7 20.8,87.7 C30.1,87.7 38.6,84.2 46.2,77.3 C49.3,74.5 52.2,71.3 54.8,67.9 C57.2,64.6 62.8,56.3 71.5,43 C76.1,36.2 81.2,29.7 86.7,23.6 C92.6,17 97.6,12.4 101.6,9.6 C94.8,4.1 85,1.3 72.2,1.3 C54.2,1.3 38.6,7.8 25.3,20.8 C14.4,31.4 9,41.5 9,50.9 C9,55.7 10.5,59.5 13.6,62.3 C16.7,65.1 20.8,66.5 26,66.5 C34.6,66.5 43.4,62.4 52.5,54.1 C61.6,45.8 66.2,37.8 66.2,30.1 C66.2,23.9 63,20.8 56.7,20.8 C50.4,20.8 43.6,24.3 36.3,31.4 C29.1,38.5 25.4,45.1 25.4,51.4 C25.4,52.9 25.9,54.3 26.9,55.4 C27.8,56.5 29.1,57.1 30.5,57.1 C31.2,57.2 31.6,57.4 31.6,57.6 C31.6,58 31.2,58.2 30.4,58.2 C28.3,58.2 26.4,57.1 25.2,55.4 C23.8,53.4 23,51 23.1,48.6 C23.1,42 26.7,35.5 34,29.2 C41.3,22.9 48.8,19.8 56.4,19.8 C63.7,19.8 67.4,23.2 67.4,29.9 C67.4,38.2 62.7,46.5 53.4,54.9 C44.2,63.3 35,67.6 25.9,67.6 C20,67.6 15.2,65.8 11.7,62.3 C8.1,58.7 6.3,53.9 6.3,48 C6.3,36 13.1,25 26.7,15 C39.8,5.2 55.6,0 71.9,0 C84.3,0 94.8,2.8 103.5,8.4 C111.3,3.5 118.8,1.1 126.1,1.1 C131.8,1.1 136.4,2.8 139.9,6.2 C143.4,9.7 145.1,14.2 145.1,19.7 M119.8,59.6 C119.8,52.6 119.8,51.3 119.7,49.8 C119.6,48.3 119.2,47.7 117.6,47.3 C117,47.2 116.3,47.1 115.7,47.1 C115.2,47.1 114.9,46.9 114.9,46.6 C114.9,46.3 115.3,46.2 116,46.2 C118.5,46.2 121.5,46.3 122.9,46.3 C124.4,46.3 135,46.4 135.9,46.3 C136.8,46.2 137.5,46.1 137.9,46 C138.1,45.9 138.4,45.8 138.7,45.8 C139,45.8 139,46 139,46.2 C138.8,47.2 138.7,48.2 138.6,49.2 C138.5,49.7 138.4,51.7 138.3,52.2 C138.2,52.4 138.1,53 137.7,53 C137.3,53 137.3,52.8 137.3,52.4 C137.3,51.8 137.2,51.3 137,50.7 C136.6,49.9 136.2,49.2 133.8,49 C133,48.9 127.3,48.8 126.3,48.8 C126.1,48.8 126,49 126,49.2 L126,60.6 C126,60.9 126,61.1 126.3,61.1 C127.4,61.1 133.6,61.1 134.7,61 C135.8,60.9 136.6,60.8 137,60.3 C137.4,60 137.5,59.7 137.8,59.7 C138.1,59.7 138.2,59.9 138.2,60.2 C138.2,60.5 138.1,61.2 137.8,63.6 C137.7,64.5 137.6,66.4 137.6,66.7 C137.6,67 137.6,67.7 137.1,67.7 C136.6,67.7 136.7,67.5 136.7,67.3 C136.7,66.8 136.7,66.2 136.5,65.6 C136.2,64.7 135.6,64 133.8,63.8 C132.9,63.7 127.5,63.6 126.3,63.6 C126.1,63.6 126,63.8 126,64.1 L126,67.8 C126,69.4 125.9,73.3 126,74.7 C126.1,77.8 127.6,78.6 132.5,78.6 C134,78.7 135.6,78.5 137,78 C138.2,77.5 138.8,76.5 139.1,74.6 C139.2,74.1 139.3,73.9 139.6,73.9 C139.9,73.9 140,74.5 140,75 C139.9,76.7 139.7,78.4 139.4,80.1 C139.1,81.3 138.6,81.3 136.9,81.3 C133.3,81.3 130.4,81.3 128.1,81.1 C125.8,80.9 124,81 122.6,81 L120,81 C118.9,81 117.6,81.1 116.7,81.1 C116.1,81.1 115.8,81 115.8,80.6 C115.8,80.2 116,80.1 116.6,80.1 C117.2,80.1 117.7,80.1 118.3,79.9 C119.3,79.7 119.5,78.8 119.7,77.4 C119.9,75.4 119.9,71.8 119.9,67.6 L119.8,59.6 Z M157.6,67.8 C157.6,73.7 157.6,76.7 158.6,77.5 C159.4,78.2 161.3,78.5 165,78.5 C167.6,78.5 169.4,78.4 170.6,77.2 C171.2,76.4 171.7,75.4 171.8,74.4 C171.8,74 171.9,73.7 172.3,73.7 C172.7,73.7 172.7,74.2 172.7,74.7 C172.6,76.5 172.4,78.3 172,80 C171.7,81 171.5,81.2 169,81.2 C165.6,81.2 162.8,81.2 160.4,81 C158,80.8 156,80.9 154,80.9 L151.3,80.9 C150.2,80.9 149,81 148,81 C147.4,81 147.1,80.9 147.1,80.5 C147.1,80.1 147.3,80 147.9,80 C148.5,80 149,80 149.6,79.8 C150.6,79.6 150.8,78.7 151,77.3 C151.2,75.3 151.2,71.7 151.2,67.5 L151.2,59.4 C151.2,52.4 151.2,51.1 151.2,49.6 C151.2,48.1 150.7,47.5 149.1,47.1 C148.6,47 148.1,46.9 147.5,46.9 C147,46.9 146.7,46.7 146.7,46.4 C146.7,46.1 147,46 147.7,46 C149.9,46 153,46.1 154.3,46.1 C155.4,46.1 159.3,46 161.2,46 C161.9,46 162.2,46.1 162.2,46.4 C162.2,46.7 161.9,46.9 161.3,46.9 C160.7,46.9 160.1,47 159.5,47.1 C158.2,47.3 157.8,48 157.7,49.6 C157.6,51.1 157.6,52.4 157.6,59.4 L157.6,67.8 Z M184.4,67.8 C184.4,73.7 184.4,76.7 185.4,77.5 C186.2,78.2 188.1,78.5 191.8,78.5 C194.4,78.5 196.2,78.4 197.4,77.2 C198,76.4 198.5,75.4 198.6,74.4 C198.6,74 198.8,73.7 199.1,73.7 C199.4,73.7 199.5,74.2 199.5,74.7 C199.4,76.5 199.2,78.3 198.8,80 C198.5,81 198.3,81.2 195.8,81.2 C192.4,81.2 189.6,81.2 187.2,81 C184.8,80.8 182.8,80.9 180.8,80.9 L178.1,80.9 C177,80.9 175.8,81 174.8,81 C174.2,81 173.9,80.9 173.9,80.5 C173.9,80.1 174,80 174.7,80 C175.3,80 175.8,80 176.4,79.8 C177.4,79.6 177.6,78.7 177.8,77.3 C178,75.3 178,71.7 178,67.5 L178,59.4 C178,52.4 178,51.1 177.9,49.6 C177.8,48.1 177.4,47.5 175.8,47.1 C175.3,47 174.8,46.9 174.2,46.9 C173.7,46.9 173.4,46.7 173.4,46.4 C173.4,46.1 173.7,46 174.4,46 C176.6,46 179.7,46.1 181,46.1 C182.1,46.1 186.1,46 187.9,46 C188.6,46 188.9,46.1 188.9,46.4 C188.9,46.7 188.6,46.9 188,46.9 C187.4,46.9 186.8,47 186.1,47.1 C184.8,47.3 184.4,48 184.3,49.6 C184.2,51.1 184.2,52.4 184.2,59.4 L184.4,67.8 Z M204.7,59.6 C204.7,52.6 204.7,51.3 204.7,49.8 C204.7,48.3 204.2,47.7 202.6,47.3 C202,47.2 201.3,47.1 200.7,47.1 C200.2,47.1 199.9,46.9 199.9,46.6 C199.9,46.3 200.3,46.2 201,46.2 C203.5,46.2 206.5,46.3 207.9,46.3 C209.3,46.3 220,46.4 220.9,46.3 C221.6,46.2 222.2,46.2 222.9,46 C223.1,45.9 223.4,45.8 223.6,45.8 C223.9,45.8 223.9,46 223.9,46.2 C223.7,47.2 223.6,48.2 223.5,49.2 C223.5,49.7 223.3,51.7 223.2,52.2 C223.1,52.4 223,53 222.7,53 C222.4,53 222.3,52.8 222.3,52.4 C222.3,51.8 222.2,51.3 222,50.7 C221.6,49.9 221.2,49.2 218.8,49 C218,48.9 212.3,48.8 211.3,48.8 C211.1,48.8 211,49 211,49.2 L211,60.6 C211,60.9 211,61.1 211.3,61.1 C212.4,61.1 218.6,61.1 219.7,61 C220.8,60.9 221.6,60.8 222,60.3 C222.4,60 222.5,59.7 222.8,59.7 C223.1,59.7 223.2,59.9 223.2,60.2 C223.2,60.5 223.1,61.2 222.8,63.6 C222.7,64.5 222.6,66.4 222.6,66.7 C222.6,67 222.6,67.7 222.1,67.7 C221.6,67.7 221.7,67.5 221.7,67.3 C221.7,66.7 221.6,66.2 221.5,65.6 C221.2,64.7 220.6,64 218.8,63.8 C217.9,63.7 212.5,63.6 211.3,63.6 C211.1,63.6 211,63.8 211,64.1 L211,67.8 C211,69.4 211,73.3 211,74.7 C211.1,77.8 212.6,78.6 217.5,78.6 C219,78.7 220.6,78.5 222,78 C223.2,77.5 223.7,76.5 224.1,74.6 C224.2,74.1 224.3,73.9 224.6,73.9 C224.9,73.9 225,74.5 225,75 C224.9,76.7 224.7,78.4 224.4,80.1 C224.1,81.3 223.6,81.3 221.9,81.3 C218.3,81.3 215.4,81.3 213.1,81.1 C210.8,80.9 209,81 207.6,81 L204.9,81 C203.8,81 202.6,81.1 201.6,81.1 C201,81.1 200.7,81 200.7,80.6 C200.7,80.2 200.9,80.1 201.5,80.1 C202.1,80.1 202.6,80.1 203.2,79.9 C204.2,79.7 204.4,78.8 204.6,77.4 C204.8,75.4 204.8,71.8 204.8,67.6 L204.7,59.6 Z M231.2,49 L231.5,49 C231.7,49 232,48.9 232.1,48.7 C232.3,48.5 232.4,48.2 232.4,47.9 C232.4,47.6 232.3,47.4 232.2,47.2 C232,47 231.7,46.9 231.4,46.9 L231.2,46.9 L231.2,49 L231.2,49 Z M229.6,46.7 L231.7,46.7 C232.2,46.7 232.7,46.7 233.2,46.9 C233.6,47.1 233.8,47.5 233.8,47.9 C233.8,48.2 233.7,48.4 233.5,48.6 C233.3,48.8 233,49 232.7,49.1 L233.5,50.5 C233.6,50.7 233.7,50.8 233.9,51 C234,51.1 234.1,51.1 234.1,51.1 L234.1,51.3 L232.7,51.3 L231.5,49.2 L231.2,49.2 L231.2,50.3 C231.2,50.5 231.2,50.7 231.3,50.9 C231.5,51 231.7,51.1 231.9,51.1 L231.9,51.3 L229.5,51.3 L229.5,51.1 C229.7,51.1 229.9,51.1 230,51 C230.1,50.8 230.2,50.6 230.2,50.3 L230.2,47.6 C230.2,47.4 230.2,47.2 230.1,47 C230,46.9 229.8,46.8 229.7,46.8 L229.6,46.7 Z M231.7,45.5 C231.1,45.5 230.5,45.7 229.9,46 C229.3,46.3 228.9,46.8 228.6,47.3 C228.3,47.8 228.1,48.5 228.1,49.1 C228.1,49.7 228.3,50.3 228.6,50.9 C228.9,51.5 229.4,51.9 229.9,52.2 C230.4,52.5 231,52.7 231.7,52.7 C232.3,52.7 232.9,52.5 233.5,52.2 C234.1,51.9 234.5,51.4 234.8,50.9 C235.4,49.8 235.4,48.4 234.8,47.3 C234.5,46.7 234,46.3 233.5,46 C233,45.7 232.4,45.5 231.7,45.5 L231.7,45.5 Z M231.7,45 C232.4,45 233.1,45.2 233.7,45.5 C234.3,45.9 234.9,46.4 235.2,47 C235.9,48.3 235.9,49.8 235.2,51.1 C234.9,51.7 234.3,52.3 233.7,52.6 C233.1,52.9 232.4,53.1 231.7,53.1 C231,53.1 230.3,52.9 229.7,52.6 C229.1,52.3 228.5,51.7 228.2,51.1 C227.5,49.8 227.5,48.3 228.2,47 C228.6,46.4 229.1,45.8 229.7,45.5 C230.4,45.2 231.1,45 231.7,45 L231.7,45 Z M30.9940346,110.277522 C27.1403813,110.277522 24.835196,106.956373 24.835196,102.787421 C24.835196,97.7916852 27.4696935,96.5094697 29.7748789,96.5094697 C33.0609941,96.5094697 35.6464452,99.2981133 35.6464452,103.789371 C35.6464452,109.590871 32.4093764,110.277522 30.9940346,110.277522 M30.3564302,95.5495597 C24.3377244,95.5495597 22.0745789,99.9847643 22.0745789,103.411012 C22.0745789,106.956373 24.4007842,111.279472 30.1532375,111.279472 C35.2470665,111.279472 38.4561087,107.643024 38.4561087,103.053674 C38.4561087,98.4573162 35.3521662,95.5495597 30.3564302,95.5495597 M45.9581207,96.9144536 L49.04805,96.9705067 C49.8047674,96.9915267 50.2251659,97.2928123 50.3723054,97.5800846 C50.4914183,97.8533437 50.4914183,98.1826559 50.4914183,98.3438086 C50.5124383,98.5540079 50.5474715,98.6661142 50.6876043,98.6661142 C50.8347438,98.6661142 50.869777,98.532988 50.8978036,98.3788418 C50.9328368,98.1336094 50.9748767,96.9494868 50.9888899,96.7533008 C51.0589564,96.2348093 51.1570494,95.9895768 51.1570494,95.849444 C51.1570494,95.751351 51.0869829,95.6672713 51.0169165,95.6672713 C50.9118169,95.6672713 50.8137239,95.751351 50.6876043,95.7863842 C50.4914183,95.849444 50.2531925,95.849444 49.8678272,95.8704639 C49.4053888,95.8914838 45.3345296,95.8914838 44.5778122,95.8914838 C44.2975465,95.8914838 43.8351081,95.8704639 43.3096099,95.849444 C42.798125,95.849444 42.2095671,95.8354307 41.6840689,95.8354307 C41.3827833,95.8354307 41.2216305,95.8704639 41.2216305,96.0316167 C41.2216305,96.1507296 41.36877,96.1927694 41.564956,96.1927694 C41.8522283,96.1927694 42.1815405,96.2137894 42.3496999,96.2488226 C43.0153309,96.3889554 43.1764837,96.7182676 43.2115169,97.3979119 C43.2535568,98.0355164 43.2535568,98.5960478 43.2535568,101.650944 L43.2535568,105.175285 C43.2535568,107.109118 43.2535568,108.601533 43.1554638,109.456343 C43.0713841,110.037895 42.9662844,110.472307 42.5669058,110.54938 C42.3917398,110.598426 42.1535139,110.633459 41.8522283,110.633459 C41.6210091,110.633459 41.543936,110.696519 41.543936,110.794612 C41.543936,110.948758 41.6840689,110.990798 41.9643346,110.990798 C42.7350652,110.990798 43.9892542,110.934745 44.5147524,110.934745 C45.0402506,110.934745 46.3014462,110.990798 47.5626418,110.990798 C47.8639274,110.990798 48.0040603,110.934745 48.0040603,110.794612 C48.0040603,110.696519 47.9199806,110.633459 47.6607348,110.633459 C47.3804691,110.633459 46.9390507,110.598426 46.658785,110.54938 C46.0562137,110.472307 45.9441074,110.037895 45.8810477,109.456343 C45.775948,108.601533 45.775948,107.109118 45.775948,105.175285 L45.775948,103.549744 C45.775948,103.409611 45.8179879,103.374578 45.9230875,103.374578 C46.2523997,103.374578 48.3894256,103.374578 48.8868972,103.430631 C49.5034818,103.507704 49.8047674,103.879056 49.909867,104.152315 C49.9939467,104.390541 50.0289799,104.635773 50.0289799,104.775906 C50.0289799,104.916039 50.0710198,105.056172 50.1901327,105.056172 C50.3933253,105.056172 50.3933253,104.852979 50.3933253,104.677813 C50.3933253,104.53768 50.4353652,103.612804 50.4703984,103.206418 C50.5264515,102.596841 50.6315512,102.085356 50.6315512,101.966243 C50.6315512,101.84713 50.5895113,101.791077 50.5124383,101.791077 C50.3933253,101.791077 50.3512855,101.875156 50.2531925,101.987263 C50.0429932,102.246508 49.7627275,102.330588 49.3913755,102.344601 C49.1111098,102.365621 48.8238374,102.365621 48.4875186,102.365621 L45.9230875,102.386641 C45.7969679,102.386641 45.775948,102.330588 45.775948,102.204469 L45.775948,97.1947193 C45.775948,96.9705067 45.8390078,96.9144536 45.9581207,96.9144536 M71.1484013,107.584869 C71.1484013,109.665842 69.62796,110.1493 68.7170964,110.1493 C68.2616647,110.1493 67.7992263,110.135287 67.2597148,109.911075 C66.6221104,109.644822 66.5590506,109.308503 66.5590506,107.984248 L66.5590506,103.233744 C66.5590506,103.135651 66.6010905,103.086605 66.6781635,103.086605 C66.9794491,103.086605 67.1826418,103.086605 67.5329739,103.107625 C68.3177178,103.149665 68.7801562,103.289797 69.2075614,103.59809 C70.7280028,104.656093 71.1484013,106.344694 71.1484013,107.584869 L71.1484013,107.584869 Z M66.5590506,97.0328658 C66.5590506,96.8086533 66.6010905,96.7315802 66.7342167,96.696547 C66.9374093,96.6545072 67.119582,96.6545072 67.3998477,96.6545072 C69.1234817,96.6545072 69.901219,98.4131744 69.901219,99.7584497 C69.901219,100.746386 69.60694,101.46807 69.0814418,101.888469 C68.745123,102.189755 68.2966979,102.266828 67.6380735,102.266828 C67.1826418,102.266828 66.8813561,102.245808 66.6921768,102.203768 C66.6221104,102.189755 66.5590506,102.154721 66.5590506,101.986562 L66.5590506,97.0328658 Z M67.7431732,95.83473 C67.0565222,95.83473 66.2787849,95.8907831 65.2908483,95.8907831 C64.8914697,95.8907831 63.6302741,95.83473 62.5652644,95.83473 C62.2569722,95.83473 62.123846,95.8697632 62.123846,96.0169027 C62.123846,96.1500289 62.2429589,96.1920688 62.4671715,96.1920688 C62.7544438,96.1920688 63.0907626,96.2130887 63.2449088,96.2551285 C63.9105398,96.3882547 64.0646859,96.7105603 64.1067258,97.3902046 C64.1487656,98.0348157 64.1487656,98.6023537 64.1487656,101.650243 L64.1487656,105.174584 C64.1487656,107.024338 64.1487656,108.607839 64.043666,109.455643 C63.9735996,110.030187 63.8684999,110.471606 63.4691213,110.548679 C63.2869486,110.597725 63.0487228,110.632759 62.7544438,110.632759 C62.5022047,110.632759 62.4251316,110.695818 62.4251316,110.793911 C62.4251316,110.941051 62.5652644,110.990097 62.8315169,110.990097 C63.2308955,110.990097 63.7423804,110.948058 64.2118254,110.948058 C64.6882771,110.941051 65.1367022,110.941051 65.3609148,110.941051 C65.6551937,110.941051 66.257765,110.948058 66.8603362,110.990097 C67.4418875,111.011117 68.0234389,111.046151 68.2616647,111.046151 C71.9471586,111.046151 73.6217461,108.832052 73.6217461,106.681012 C73.6217461,104.333787 71.6108397,102.911439 69.9642788,102.343901 C71.0643216,101.46807 72.0102184,100.487141 72.0102184,98.8335729 C72.0102184,97.7755699 71.3726139,95.83473 67.7431732,95.83473 L67.7431732,95.83473 Z M83.6223267,104.755587 L79.9368329,104.755587 C79.8597598,104.755587 79.8387399,104.692527 79.8597598,104.608448 L81.6955001,99.682778 C81.7235267,99.5986983 81.7585599,99.5006053 81.8216197,99.5006053 C81.8776728,99.5006053 81.9056994,99.5986983 81.9267193,99.682778 L83.7274264,104.629467 C83.7484463,104.692527 83.7274264,104.755587 83.6223267,104.755587 M90.6640023,110.788306 C90.6640023,110.648173 90.5659093,110.627153 90.4047565,110.627153 C90.1665307,110.627153 89.8652451,110.61314 89.5639595,110.55008 C89.1365543,110.444981 88.555003,110.171722 87.7982856,108.364008 C86.51607,105.316118 83.3000212,97.1323602 82.8235695,96.0253107 C82.6203769,95.5698789 82.501264,95.3877062 82.3190913,95.3877062 C82.1158986,95.3877062 82.0037924,95.6119188 81.7585599,96.1864634 L76.7277907,108.784406 C76.3214054,109.793363 75.9430467,110.473007 75.0181699,110.59212 C74.8640238,110.61314 74.5767515,110.627153 74.4015854,110.627153 C74.233426,110.627153 74.1563529,110.6762 74.1563529,110.788306 C74.1563529,110.956466 74.2754658,110.991499 74.5347116,110.991499 C75.585708,110.991499 76.6857508,110.935446 76.9029567,110.935446 C77.5335545,110.935446 78.3883649,110.991499 79.032976,110.991499 C79.2501819,110.991499 79.3763015,110.956466 79.3763015,110.788306 C79.3763015,110.6762 79.3202483,110.627153 79.0750158,110.627153 L78.7737302,110.627153 C78.1501391,110.627153 77.9679664,110.374914 77.9679664,110.010569 C77.9679664,109.765336 78.0660593,109.288885 78.269252,108.784406 L79.3552815,105.91869 C79.3903148,105.799577 79.425348,105.757537 79.5304476,105.757537 L84.0076921,105.757537 C84.1057851,105.757537 84.1618382,105.799577 84.2038781,105.904676 L85.8083992,110.150702 C85.9134988,110.395934 85.7733659,110.5711 85.6332331,110.61314 C85.4300405,110.627153 85.3459608,110.6762 85.3459608,110.788306 C85.3459608,110.935446 85.5911932,110.935446 85.9555386,110.956466 C87.5600598,110.991499 89.024448,110.991499 89.7461322,110.991499 C90.4818296,110.991499 90.6640023,110.956466 90.6640023,110.788306 M102.616634,95.7884862 C102.308341,95.830526 101.880936,95.8865792 101.243332,95.8865792 L93.2977992,95.8865792 C92.6321682,95.8865792 91.8684441,95.8515459 91.2868928,95.7884862 C90.7894212,95.753453 90.5862286,95.5502603 90.4250758,95.5502603 C90.3059629,95.5502603 90.2358965,95.6693732 90.1938566,95.928619 C90.1448101,96.0897718 89.7594448,97.9185054 89.7594448,98.240811 C89.7594448,98.4580169 89.8014846,98.5561099 89.9346108,98.5561099 C90.0607304,98.5561099 90.1237902,98.4720302 90.16583,98.3178841 C90.2078699,98.1567313 90.3059629,97.9185054 90.5021489,97.6102132 C90.8034345,97.1687947 91.2868928,97.0707017 92.4570021,97.0286619 L95.4418317,96.9515888 L95.4418317,105.177387 C95.4418317,107.027141 95.4418317,108.603635 95.3437388,109.451439 C95.280679,110.03299 95.161566,110.474409 94.7551808,110.551482 C94.5800147,110.593521 94.3347823,110.635561 94.0334966,110.635561 C93.7882641,110.635561 93.7111911,110.691614 93.7111911,110.789707 C93.7111911,110.943854 93.8513239,110.9929 94.1175763,110.9929 C94.9233402,110.9929 96.1845358,110.943854 96.6399676,110.943854 C97.2075056,110.943854 98.4687012,110.9929 99.7929567,110.9929 C100.017169,110.9929 100.171315,110.943854 100.171315,110.789707 C100.171315,110.691614 100.073222,110.635561 99.8420031,110.635561 C99.5547308,110.635561 99.1063057,110.593521 98.82604,110.551482 C98.2304754,110.474409 98.0973492,110.03299 98.0483027,109.472459 C97.9432031,108.603635 97.9432031,107.027141 97.9432031,105.177387 L97.9432031,96.9515888 L100.472601,97.0146486 C102.259295,97.0496818 102.798806,97.6102132 102.840846,98.1357114 L102.854859,98.3599239 C102.875879,98.6612095 102.924926,98.7593025 103.079072,98.7593025 C103.198185,98.7593025 103.247231,98.6401896 103.261245,98.436997 C103.261245,97.9185054 103.324304,96.5311903 103.324304,96.1107917 C103.324304,95.8095061 103.296278,95.6973998 103.156145,95.6973998 C103.079072,95.6973998 102.924926,95.7254264 102.616634,95.7884862 M107.59135,102.788122 C107.59135,97.7923859 110.21884,96.5101703 112.531032,96.5101703 C115.817148,96.5101703 118.402599,99.2918073 118.402599,103.790072 C118.402599,109.591572 115.151517,110.278223 113.750188,110.278223 C109.903542,110.278223 107.59135,106.957074 107.59135,102.788122 M121.205256,103.054374 C121.205256,98.4580169 118.10832,95.5502603 113.105577,95.5502603 C107.093878,95.5502603 104.816719,99.9854649 104.816719,103.411713 C104.816719,106.957074 107.156938,111.273166 112.909391,111.273166 C118.00322,111.273166 121.205256,107.636718 121.205256,103.054374 M137.698191,95.8914838 C137.270786,95.8914838 136.317883,95.828424 135.266886,95.828424 C134.972607,95.828424 134.748395,95.8564506 134.748395,96.0105967 C134.748395,96.1297096 134.832474,96.1927694 135.0707,96.1927694 C135.350966,96.1927694 135.834424,96.1927694 136.128703,96.3118823 C136.612162,96.5080683 136.794334,96.9004403 136.822361,98.1195961 L137.01154,107.123132 L136.920454,107.123132 C136.570122,106.800826 133.865558,103.914089 132.506269,102.547794 C129.577493,99.6400375 126.529603,96.3679355 126.284371,96.1156964 C125.948052,95.751351 125.765879,95.4921052 125.548673,95.4921052 C125.345481,95.4921052 125.289428,95.7653642 125.289428,96.1717495 L125.100248,108.041002 C125.086235,109.792662 125.002155,110.374214 124.476657,110.52836 C124.203398,110.612439 123.832046,110.633459 123.5728,110.633459 C123.376614,110.633459 123.257501,110.675499 123.257501,110.794612 C123.257501,110.969778 123.439674,110.990798 123.691913,110.990798 C124.735903,110.990798 125.6818,110.934745 125.863972,110.934745 C126.242331,110.934745 127.041088,110.990798 128.35133,110.990798 C128.624589,110.990798 128.806762,110.948758 128.806762,110.794612 C128.806762,110.675499 128.694656,110.633459 128.470443,110.633459 C128.155144,110.633459 127.769779,110.612439 127.426453,110.493326 C127.034081,110.346187 126.760822,109.834702 126.725789,108.265214 L126.501577,99.8432301 L126.571643,99.8432301 C126.928982,100.228595 129.150087,102.729967 131.33616,104.895019 C133.431146,106.961979 135.995577,109.58947 137.263779,110.794612 C137.473979,111.011818 137.726218,111.236031 137.936417,111.236031 C138.125596,111.236031 138.202669,111.046851 138.202669,110.612439 L138.419875,97.9514367 C138.440895,96.8303739 138.602048,96.4099753 139.162579,96.2558292 C139.400805,96.1927694 139.568965,96.1927694 139.765151,96.1927694 C140.010383,96.1927694 140.129496,96.1297096 140.129496,96.0105967 C140.129496,95.8564506 139.926303,95.828424 139.660051,95.828424 C138.679121,95.828424 137.915397,95.8914838 137.698191,95.8914838 M154.680891,103.790772 C154.183419,103.790772 153.587855,103.734719 153.153443,103.594586 C153.020317,103.531527 152.99229,103.454454 152.99229,103.230241 L152.99229,97.1344622 C152.99229,96.9663027 153.020317,96.8962363 153.153443,96.8541965 C153.363642,96.7911367 153.727988,96.7701168 154.232466,96.7701168 C155.409582,96.7701168 157.287362,97.5969006 157.287362,100.448604 C157.287362,102.081152 156.712817,103.013035 156.110246,103.454454 C155.745901,103.713699 155.486655,103.790772 154.680891,103.790772 M163.600347,110.566196 C163.306068,110.510142 162.486291,110.37001 161.365228,109.213914 C160.181105,107.966731 158.79379,106.180037 157.014103,103.937912 C159.039022,102.291351 159.655607,100.925056 159.655607,99.4396475 C159.655607,98.1013788 158.85685,97.0714024 158.303325,96.6930437 C157.210289,95.9503396 155.865013,95.8312267 154.603818,95.8312267 C153.980227,95.8312267 152.459785,95.8872798 151.773134,95.8872798 C151.352736,95.8872798 150.098547,95.8312267 149.026531,95.8312267 C148.725245,95.8312267 148.592119,95.8732665 148.592119,96.0133994 C148.592119,96.1535322 148.704225,96.1955721 148.928438,96.1955721 C149.21571,96.1955721 149.559035,96.2095854 149.706175,96.2516252 C150.371806,96.3847514 150.532959,96.7140636 150.574999,97.3937079 C150.617038,98.038319 150.617038,98.5988504 150.617038,101.64674 L150.617038,105.178088 C150.617038,107.020835 150.617038,108.604336 150.511939,109.452139 C150.441872,110.033691 150.336773,110.475109 149.930387,110.552182 C149.748215,110.594222 149.509989,110.636262 149.21571,110.636262 C148.963471,110.636262 148.893404,110.692315 148.893404,110.790408 C148.893404,110.944554 149.026531,110.993601 149.292783,110.993601 C150.098547,110.993601 151.352736,110.944554 151.738101,110.944554 C152.03238,110.944554 153.524795,110.993601 154.680891,110.993601 C154.947143,110.993601 155.087276,110.944554 155.087276,110.790408 C155.087276,110.692315 155.003196,110.636262 154.84905,110.636262 C154.603818,110.636262 154.169406,110.594222 153.86812,110.552182 C153.265549,110.475109 153.13943,110.033691 153.083376,109.452139 C152.99229,108.604336 152.99229,107.020835 152.99229,105.157068 L152.99229,104.876802 C152.99229,104.757689 153.048343,104.715649 153.13943,104.715649 L154.89109,104.757689 C155.024216,104.757689 155.143329,104.778709 155.248429,104.897822 C155.507675,105.199108 156.432552,106.565403 157.231309,107.665446 C158.352372,109.213914 159.123102,110.152804 159.984919,110.615242 C160.496404,110.888501 161.000882,110.993601 162.121945,110.993601 L164.034758,110.993601 C164.272984,110.993601 164.413117,110.951561 164.413117,110.790408 C164.413117,110.692315 164.329037,110.636262 164.174891,110.636262 C164.013739,110.636262 163.831566,110.615242 163.600347,110.566196 M177.54847,103.790772 C177.54847,109.592272 174.297388,110.278923 172.896059,110.278923 C169.049412,110.278923 166.744227,106.957775 166.744227,102.788823 C166.744227,97.7930865 169.364711,96.510871 171.676903,96.510871 C174.963019,96.510871 177.54847,99.292508 177.54847,103.790772 M163.976603,103.412414 C163.976603,106.957775 166.302809,111.273866 172.055262,111.273866 C177.142084,111.273866 180.351127,107.637419 180.351127,103.055075 C180.351127,98.4587176 177.247184,95.550961 172.251448,95.550961 C166.239749,95.550961 163.976603,99.9861656 163.976603,103.412414 M185.670569,109.887252 C187.134958,111.211507 189.061784,111.274567 190.133801,111.274567 C191.430029,111.274567 192.873398,111.050355 194.295746,109.831199 C195.984347,108.38783 196.201553,106.019585 196.201553,103.791473 L196.201553,101.647441 C196.201553,98.5995511 196.201553,98.0390197 196.250599,97.3944086 C196.285633,96.6937444 196.439779,96.3504189 196.986297,96.2523259 C197.217516,96.210286 197.336629,96.1892661 197.567848,96.1892661 C197.799067,96.1892661 197.925187,96.1542329 197.925187,96.0141 C197.925187,95.8739672 197.785054,95.8319273 197.504788,95.8319273 C196.727051,95.8319273 195.458849,95.8879805 195.213616,95.8879805 C195.199603,95.8879805 193.938407,95.8319273 192.915438,95.8319273 C192.635172,95.8319273 192.502046,95.8739672 192.502046,96.0141 C192.502046,96.1542329 192.614152,96.1892661 192.831358,96.1892661 C193.05557,96.1892661 193.398896,96.210286 193.560049,96.2523259 C194.218673,96.3854521 194.379826,96.7147643 194.421866,97.3944086 C194.463906,98.0390197 194.463906,98.5995511 194.463906,101.647441 L194.463906,104.155818 C194.463906,106.222778 194.400846,108.023485 193.300803,109.130535 C192.502046,109.929292 191.40901,110.209557 190.526173,110.209557 C189.853535,110.209557 188.921651,110.132484 188.017795,109.38978 C187.036865,108.584016 186.448307,107.357854 186.448307,104.457104 L186.448307,101.647441 C186.448307,98.5995511 186.448307,98.0390197 186.490347,97.3944086 C186.532386,96.6937444 186.693539,96.3504189 187.247064,96.2523259 C187.48529,96.210286 187.590389,96.1892661 187.828615,96.1892661 C188.017795,96.1892661 188.143914,96.1542329 188.143914,96.0141 C188.143914,95.8739672 188.003781,95.8319273 187.702496,95.8319273 C186.980812,95.8319273 185.719616,95.8879805 185.236158,95.8879805 C184.633586,95.8879805 183.372391,95.8319273 182.307381,95.8319273 C182.006095,95.8319273 181.865963,95.8739672 181.865963,96.0141 C181.865963,96.1542329 181.985076,96.1892661 182.202281,96.1892661 C182.489554,96.1892661 182.832879,96.210286 182.987025,96.2523259 C183.652656,96.3854521 183.806803,96.7147643 183.848842,97.3944086 C183.890882,98.0390197 183.890882,98.5995511 183.890882,101.647441 L183.890882,104.583224 C183.890882,107.483974 184.6476,108.969382 185.670569,109.887252 M213.259224,103.537833 C212.649646,103.537833 211.38845,103.474773 210.344461,103.474773 C210.057188,103.474773 209.917055,103.509806 209.917055,103.677965 C209.917055,103.790072 210.050182,103.832112 210.218341,103.832112 C210.498607,103.832112 210.841932,103.853132 211.010092,103.895171 C211.661709,104.035304 211.843882,104.35761 211.871909,105.037254 C211.885922,105.639825 211.885922,106.403549 211.885922,107.398493 L211.885922,109.290286 C211.885922,109.633611 211.808849,109.892857 211.507563,110.03299 C211.024105,110.250196 210.323441,110.250196 209.804949,110.250196 C205.572937,110.250196 202.819327,107.027141 202.819327,102.718055 C202.819327,100.244711 203.541011,98.731276 204.662074,97.7993925 C206.070409,96.6362899 207.534797,96.5522102 208.63484,96.5522102 C210.904992,96.5522102 212.509513,97.4840936 213.112084,98.1216981 C213.637582,98.6752228 213.728669,99.3198339 213.791729,99.7822723 C213.812748,99.9434251 213.854788,100.041518 213.987915,100.041518 C214.156074,100.041518 214.219134,99.9434251 214.219134,99.6211195 C214.219134,97.1127416 214.35226,96.5522102 214.35226,96.3350043 C214.35226,96.1948714 214.317227,96.1107917 214.064988,96.0967784 C213.616562,96.0687519 212.908892,95.9496389 212.4955,95.8725659 C212.089114,95.7884862 210.323441,95.5502603 208.943132,95.5502603 C207.254531,95.5502603 205.467837,95.6973998 203.541011,96.8534958 C201.719284,97.9605453 200.051703,100.202671 200.051703,103.411713 C200.051703,108.953967 204.402828,111.273166 209.321491,111.273166 C210.883972,111.273166 212.852838,111.048953 214.156074,110.369309 C214.387293,110.229176 214.408313,110.194143 214.408313,109.647625 L214.408313,107.440532 C214.408313,106.445589 214.408313,105.639825 214.43634,105.037254 C214.450353,104.33659 214.660552,103.993264 215.193057,103.895171 C215.43829,103.853132 215.578422,103.832112 215.739575,103.832112 C215.879708,103.832112 215.998821,103.790072 215.998821,103.677965 C215.998821,103.509806 215.858688,103.474773 215.599442,103.474773 C214.933811,103.474773 213.875808,103.537833 213.259224,103.537833 M222.017527,110.941051 C222.613091,110.941051 223.243689,110.948058 224.098499,110.990097 C224.967323,111.011117 226.060359,111.046151 227.573794,111.046151 C228.337518,111.046151 228.519691,111.046151 228.652817,110.534666 C228.757917,110.135287 228.919069,108.761985 228.919069,108.306553 C228.919069,108.103361 228.919069,107.942208 228.757917,107.942208 C228.617784,107.942208 228.582751,108.026288 228.533704,108.243494 C228.393571,109.063271 228.155345,109.483669 227.643861,109.735908 C227.118362,109.967128 226.270559,109.967128 225.74506,109.967128 C223.699121,109.967128 223.376815,109.665842 223.334775,108.285533 C223.320762,107.710989 223.334775,105.861235 223.334775,105.174584 L223.334775,103.59809 C223.334775,103.47197 223.348789,103.394897 223.453888,103.394897 C223.944353,103.394897 225.927233,103.40891 226.305592,103.45095 C227.048296,103.53503 227.328562,103.829309 227.433661,104.228688 C227.489714,104.501947 227.489714,104.761192 227.503728,104.957378 C227.503728,105.055471 227.545768,105.132544 227.692907,105.132544 C227.87508,105.132544 227.87508,104.915339 227.87508,104.761192 C227.87508,104.614053 227.931133,103.815296 227.952153,103.40891 C228.029226,102.385941 228.113306,102.063635 228.113306,101.951529 C228.113306,101.832416 228.050246,101.790376 227.980179,101.790376 C227.87508,101.790376 227.783993,101.888469 227.650867,102.042615 C227.468694,102.245808 227.167409,102.308868 226.690957,102.343901 C226.228519,102.385941 223.916327,102.385941 223.481915,102.385941 C223.348789,102.385941 223.334775,102.308868 223.334775,102.168735 L223.334775,97.0959256 C223.334775,96.9487861 223.376815,96.8997396 223.481915,96.8997396 C223.8883,96.8997396 225.983286,96.9347729 226.326612,96.9698061 C227.328562,97.0959256 227.531754,97.3341515 227.678894,97.6984969 C227.76998,97.9367227 227.783993,98.2800482 227.783993,98.4131744 C227.783993,98.6023537 227.840046,98.7004467 227.980179,98.7004467 C228.113306,98.7004467 228.155345,98.5743272 228.169359,98.4762342 C228.211399,98.2380083 228.253438,97.362178 228.274458,97.1519788 C228.337518,96.2341086 228.435611,95.9888761 228.435611,95.8487433 C228.435611,95.7506503 228.407585,95.6665706 228.309492,95.6665706 C228.211399,95.6665706 228.092286,95.7296304 227.994193,95.7506503 C227.840046,95.7856835 227.503728,95.83473 227.125369,95.8697632 C226.754017,95.8907831 222.753224,95.8907831 222.11562,95.8907831 C221.835354,95.8907831 221.365909,95.8697632 220.854424,95.8487433 C220.349946,95.8487433 219.775401,95.83473 219.228883,95.83473 C218.927597,95.83473 218.787465,95.8697632 218.787465,96.0169027 C218.787465,96.1500289 218.913584,96.1920688 219.13079,96.1920688 C219.404049,96.1920688 219.754381,96.2130887 219.908527,96.2551285 C220.581165,96.3882547 220.735311,96.7105603 220.770344,97.3902046 C220.812384,98.0348157 220.812384,98.6023537 220.812384,101.650243 L220.812384,105.174584 C220.812384,107.024338 220.812384,108.607839 220.707285,109.455643 C220.637218,110.030187 220.539125,110.471606 220.125733,110.548679 C219.950567,110.597725 219.705335,110.632759 219.404049,110.632759 C219.165823,110.632759 219.08875,110.695818 219.08875,110.793911 C219.08875,110.941051 219.228883,110.990097 219.488129,110.990097 C219.887507,110.990097 220.413006,110.948058 220.875444,110.948058 C221.351896,110.941051 221.800321,110.941051 222.017527,110.941051" id="belle" fill="#343840"></path>
</svg>
