<?xml version="1.0" encoding="UTF-8"?>
<svg width="246px" height="34px" viewBox="0 0 246 34" version="1.1" xmlns="http://www.w3.org/2000/svg" xmlns:xlink="http://www.w3.org/1999/xlink">
	<title>Harveys</title>
  <path d="M63.063,1.844 L50.125,1.844 L49.125,1.781 C45.25,1.781 41.969,4.469 41.062,8.062 L32.312,32.843 L42,32.843 L45.781,22.843 L55,22.843 L51.75,32.468 L62.375,32.468 L69.75,11.312 C70.108,10.515 70.316,9.585 70.316,8.606 C70.316,4.878 67.294,1.856 63.566,1.856 C63.389,1.856 63.213,1.863 63.039,1.876 L63.062,1.875 L63.063,1.844 Z M59.125,11.156 L57.5,15.719 L48.281,15.719 L49.812,11.375 C50.031,10.219 50.75,9.281 51.75,8.75 C52.619,8.501 53.616,8.358 54.648,8.358 C55.72,8.358 56.755,8.513 57.734,8.801 L57.657,8.782 C58.543,8.927 59.211,9.687 59.211,10.603 C59.211,10.801 59.18,10.992 59.122,11.17 L59.126,11.157 L59.125,11.156 Z M20.375,1.844 L16.5,13.469 L26.656,13.469 L30.531,1.844 L40.844,1.844 L29.844,32.844 L19.438,32.844 L23.938,20.594 L13.938,20.594 L9.688,32.688 L0,32.688 L10.469,1.844 L20.375,1.844 Z M94.75,1.844 L76,1.844 L65.406,32.844 L75.219,32.844 L79.344,20.219 L86.469,20.219 C87.719,20.219 88.344,20.688 88.344,22.219 C88.344,23.75 86.781,27.719 86.781,29.594 C86.778,29.647 86.777,29.709 86.777,29.772 C86.777,30.963 87.31,32.03 88.151,32.746 L88.156,32.751 L99.031,32.782 C99.031,32.782 95.937,30.844 95.937,28.751 C95.937,26.658 97.781,24.626 97.781,21.782 L97.781,21.501 C97.781,19.845 96.843,18.407 95.468,17.657 C104.281,15.563 105.374,1.844 94.749,1.844 L94.75,1.844 Z M88.625,13.406 L81.812,13.406 L83.218,8.75 L89.968,8.75 C93.999,8.75 92.968,13.406 88.624,13.406 L88.625,13.406 Z M139.469,1.375 L121.5,29.438 C120.375,31.344 118.375,32.657 116.094,32.844 C114.735,33.059 113.167,33.182 111.571,33.182 C109.902,33.182 108.265,33.048 106.67,32.789 L106.845,32.812 C105.178,32.642 103.888,31.245 103.888,29.547 C103.888,29.42 103.895,29.295 103.909,29.172 L103.908,29.187 L103.908,1.374 L113.658,1.374 L113.658,24.249 L128.783,0.999 L139.469,1.375 Z M181.688,1.781 L178.219,11.375 C176.438,16.344 185.969,16.563 187.969,11.375 L191.625,1.781 L201.438,1.781 L192.313,27.406 C191.063,31.062 187.813,32.531 182.563,32.531 L160.782,32.531 L163.563,25.25 L180.157,25.25 C180.157,25.25 184.407,25.25 184.407,22.062 C182.769,22.206 180.863,22.288 178.938,22.288 C177.013,22.288 175.107,22.206 173.224,22.045 L173.469,22.062 C170.058,21.728 167.415,18.875 167.415,15.405 C167.415,14.287 167.689,13.233 168.174,12.307 L168.156,12.344 L171.781,1.781 L181.688,1.781 Z M192.844,32 L216.094,32 C216.167,32.002 216.252,32.003 216.338,32.003 C221.695,32.003 226.084,27.855 226.467,22.596 L226.469,22.563 C226.469,18.594 225.781,12.938 217.25,12.938 C211.531,12.938 209.969,12.938 209.969,11.313 C209.969,9.688 210.594,8.594 214.688,8.594 L230.969,8.594 L233.594,0.844 L211.594,0.844 C205.413,0.984 200.454,6.02 200.438,12.217 L200.438,12.312 C200.438,16.25 202.063,20.062 210.219,20.062 C214.688,20.062 216.094,20.062 216.094,22 C216.094,23.938 214.844,24 210.219,24 L195.5,24 L192.844,32 Z M168.531,1.781 L165.875,9.531 L150.937,9.531 C144.968,9.531 144.593,13.937 144.593,13.937 L164.343,13.937 L161.718,21.687 L141.937,21.687 C141.937,21.687 140.312,25.625 144.281,25.625 L160.781,25.625 L158.312,32.938 L137.531,32.938 C132.031,32.938 130.312,27.5 132.093,21.688 L136.687,8.375 C138.211,4.462 141.948,1.739 146.322,1.739 C146.649,1.739 146.972,1.754 147.291,1.784 L147.25,1.781 L168.531,1.781 Z M238.344,4.563 C238.344,2.595 239.939,1 241.907,1 C243.875,1 245.47,2.595 245.47,4.563 L245.47,4.563 C245.47,6.531 243.875,8.126 241.907,8.126 C239.939,8.126 238.344,6.531 238.344,4.563 L238.344,4.563 Z M245,4.563 C245,2.872 243.629,1.5 241.937,1.5 C240.245,1.5 238.874,2.871 238.874,4.563 L238.874,4.563 C238.874,6.254 240.245,7.626 241.937,7.626 C243.629,7.626 245,6.255 245,4.563 L245,4.563 Z M243.688,6.5 L242.969,6.5 L241.813,4.719 L241.125,4.719 L241.125,6.5 L240.187,6.5 L240.187,2.625 L241.906,2.625 C242.594,2.625 243.281,2.625 243.281,3.625 C243.281,4.625 242.75,4.719 242.062,4.719 L243.688,6.5 Z M241.813,4.188 C242.282,4.188 243.126,4.188 243.126,3.625 C243.126,3.062 242.595,3.156 242.22,3.156 L241.189,3.156 L241.189,4.187 L241.813,4.188 Z" id="harveys" fill="#343840"></path>
</svg>
