<?xml version="1.0" encoding="UTF-8"?>
<svg width="80px" height="33px" viewBox="0 0 80 33" version="1.1" xmlns="http://www.w3.org/2000/svg" xmlns:xlink="http://www.w3.org/1999/xlink">
	<title>Indiana Grand</title>
  <path d="M76.3058925,17.0637335 C74.4037605,15.252514 72.010942,14.5351183 69.3987578,14.5459068 L62.6070787,14.5459068 L62.6070787,25.986172 L65.3606961,25.986172 L65.3606961,17.1482935 C66.7057546,17.1510212 67.8603111,17.1592044 69.3987578,17.1592044 C71.4278909,17.1701154 72.9778831,17.6392867 74.3373735,18.9131414 C75.7228414,20.23064 76.3751659,21.7281694 76.383825,23.591216 C76.3751659,25.4460794 75.7228414,26.9381533 74.3373735,28.2583796 C72.9432464,29.5649672 71.3643903,30.1841643 69.3987578,30.1923475 C67.5947631,30.186892 66.1024987,29.6495272 64.7603267,28.5284259 L64.1599573,28.0292494 L62.1106194,29.7940974 L62.8322172,30.4160222 C64.6679622,32.003567 66.9106883,32.8191614 69.3987578,32.8137331 L69.4362809,32.8137331 C72.0859882,32.8137331 74.4412836,31.8890019 76.3058925,30.1105153 C78.1907061,28.3402118 79.1691928,26.1007371 79.1605906,23.591216 C79.1691928,21.0735117 78.1907061,18.834037 76.3058925,17.0637335 M13.7999045,28.9936011 C12.4548461,28.9908733 11.3002895,28.9826901 9.76184287,28.9826901 C7.73270969,28.9717791 6.18271749,28.5026054 4.82322712,27.2314723 C3.43775923,25.9112395 2.78543477,24.4137028 2.7767756,22.5533749 C2.78543477,20.6957747 3.43775923,19.2036935 4.82322712,17.8861885 C6.21735419,16.5768668 7.7962103,15.9603945 9.76184287,15.9494835 C11.5658375,15.9576667 13.0581019,16.4923064 14.4002739,17.6106854 L15.0006433,18.1153198 L17.0499812,16.3477355 L16.3283834,15.7285354 C14.4926384,14.1409829 12.2499123,13.319929 9.76184287,13.3280517 C7.09481718,13.319929 4.72508981,14.2473653 2.85470816,16.0313161 C0.969894556,17.8016282 -0.00859214041,20.0411138 1.00588303e-05,22.5533749 C-0.00859214041,25.0710914 0.969894556,27.3078494 2.85470816,29.0781614 C4.74240816,30.8757511 7.11790832,31.595878 9.70411504,31.595878 L16.5535219,31.595878 L16.5535219,22.286055 L13.7999045,22.286055 L13.7999045,28.9936011 Z M20.9034596,15.9712442 L25.3983853,15.9712442 C26.4261126,15.9795214 27.2162471,16.3050921 27.9566528,17.0279694 C28.6777195,17.7591239 29.0092444,18.550978 29.0175326,19.5856306 C29.0092444,20.6202832 28.6777195,21.4093783 27.95389,22.1432919 C27.2134843,22.8716873 26.4261126,23.197258 25.3983853,23.2055352 L20.9034596,23.2055352 L20.9034596,15.9712442 Z M27.6389414,25.3934806 C28.4815672,25.0899825 29.2357865,24.6016264 29.8242433,24.0167028 C31.0315466,22.822024 31.6697321,21.2824609 31.6642423,19.5856306 C31.6697321,17.8915594 31.0315466,16.3547555 29.8242433,15.1628357 C28.8186176,14.1530147 27.5450093,13.526705 26.1139266,13.3363289 L26.053147,13.3280517 L18.2678363,13.3280517 L18.2678363,31.595878 L20.9034596,31.595878 L20.9034596,25.8487277 L24.7850641,25.8487277 L28.4788045,31.595878 L31.6642423,31.595878 L27.6389414,25.3934806 Z M38.367986,19.6621775 L40.6064457,24.4383585 L36.1295262,24.4383585 L38.367986,19.6621775 Z M38.367986,13.3280517 L29.2285321,32.8137331 L32.1983698,32.8137331 L34.8551556,27.150547 L41.8752756,27.150547 L44.5237503,32.8137331 L47.4963584,32.8137331 L38.367986,13.3280517 Z M58.1785248,13.3280517 L58.1785248,26.2598297 L48.6573707,13.3280517 L46.2785033,13.3280517 L46.2785033,31.595878 L48.9899006,31.595878 L48.9899006,18.5206282 L58.602003,31.595878 L60.8927643,31.595878 L60.8927643,13.3280517 L58.1785248,13.3280517 Z M33.6874443,2.65886884 C32.5986718,1.57283075 31.232094,1.14398494 29.7420471,1.14950087 L25.8611905,1.14950087 L25.8611905,8.01387202 L27.4326147,8.01387202 L27.4326147,2.71177838 C28.2014902,2.7145631 28.8609271,2.71734781 29.7420471,2.71734781 C30.8981664,2.72291724 31.7820925,3.00417325 32.5621923,3.76718463 C33.3535167,4.56082784 33.7267299,5.45750544 33.7323422,6.57417537 C33.7267299,7.68806059 33.3535167,8.58473819 32.5649985,9.3755967 C31.7652558,10.1581011 30.8616869,10.5284679 29.7420471,10.5340373 C28.712203,10.5312526 27.8591442,10.2110106 27.0902688,9.53989476 L26.7479228,9.23636104 L25.5749668,10.294552 L25.9902718,10.6704883 C27.0369526,11.6200754 28.319347,12.1129696 29.7420471,12.1101966 L29.764496,12.1101966 C31.2769918,12.1101966 32.6211208,11.5532423 33.6874443,10.4866972 C34.7621862,9.42572153 35.3206031,8.08070513 35.3178075,6.57417537 C35.3206031,5.06486091 34.7649924,3.72262922 33.6874443,2.65886884 M42.0532769,4.14269639 L43.3548595,7.02462866 L40.7516942,7.02462866 L42.0532769,4.14269639 Z M42.0532769,0.31376 L36.7455599,12.0870087 L38.4691293,12.0870087 L40.0118473,8.66434875 L44.0919663,8.66434875 L45.631944,12.0870087 L47.3582536,12.0870087 L42.0532769,0.31376 Z M60.7814036,4.14269639 L62.1697584,7.02462866 L59.3930488,7.02462866 L60.7814036,4.14269639 Z M60.7814036,0.31376 L55.1169161,12.0870087 L56.958313,12.0870087 L58.6038787,8.66434875 L62.9530828,8.66434875 L64.5986486,12.0870087 L66.4400455,12.0870087 L60.7814036,0.31376 Z M22.7745449,1.14950087 L22.7745449,8.90734105 L17.2200457,1.14950087 L15.8321262,1.14950087 L15.8321262,12.1101966 L17.414693,12.1101966 L17.414693,4.26503146 L23.0227907,12.1101966 L24.3571118,12.1101966 L24.3571118,1.14950087 L22.7745449,1.14950087 Z M54.4387771,1.14950087 L54.4387771,8.90734105 L48.8842779,1.14950087 L47.4963584,1.14950087 L47.4963584,12.1101966 L49.0789252,12.1101966 L49.0789252,4.26503146 L54.6842019,12.1101966 L56.021344,12.1101966 L56.021344,1.14950087 L54.4387771,1.14950087 Z M14.0759791,4.26583237 L14.0759791,12.1101966 L12.7119814,12.1101966 L12.7119814,1.14950087 L14.0808506,1.14950087 L14.0759791,4.26583237 Z M37.2164436,4.26583237 L37.2164436,12.1101966 L35.8500102,12.1101966 L35.8500102,1.14950087 L37.221315,1.14950087 L37.2164436,4.26583237 Z" id="indiana_grand" fill="#343840"></path>
</svg>
