<?xml version="1.0" encoding="UTF-8"?>
<svg width="90px" height="32px" viewBox="0 0 90 32" version="1.1" xmlns="http://www.w3.org/2000/svg" xmlns:xlink="http://www.w3.org/1999/xlink">
	<title>The Linq</title>
  <path d="M27.156,31.25 L24.875,31.25 L24.875,13.062 L27.125,13.062 L27.156,31.25 Z M39.531,12.188 L53.187,26.501 L53.187,13.063 L55.437,13.063 L55.437,32.001 L41.812,17.813 L41.812,31.376 L39.562,31.376 L39.531,12.188 Z M84.25,31.25 L82.687,29.687 C81.148,30.821 79.216,31.501 77.124,31.501 C71.955,31.501 67.757,27.346 67.687,22.193 L67.687,22.186 C67.714,16.942 71.971,12.701 77.218,12.701 C82.482,12.701 86.749,16.968 86.749,22.232 C86.749,22.248 86.749,22.265 86.749,22.281 L86.749,22.278 C86.749,24.716 85.78,26.934 84.218,28.559 L87.187,31.247 L84.25,31.25 Z M82.531,27.063 C83.745,25.766 84.49,24.017 84.49,22.094 C84.49,18.073 81.23,14.813 77.209,14.813 C73.188,14.813 69.928,18.073 69.928,22.094 C69.928,22.226 69.932,22.357 69.938,22.487 L69.937,22.469 C70.09,26.387 73.303,29.505 77.244,29.505 C77.334,29.505 77.423,29.503 77.512,29.5 L77.499,29.5 C78.843,29.406 80.062,28.969 81.124,28.281 L77.186,24.75 L77.186,22.187 L82.531,27.063 Z M0,13.063 L2.375,13.063 L2.375,29.188 L12.625,29.188 L12.625,31.251 L0,31.251 L0,13.063 Z M2,0.625 L0,0.625 L0,0 L4.625,0 L4.625,0.625 L2.656,0.625 L2.656,5.938 L2,5.938 L2,0.625 Z M8.406,0 L9.062,0 L9.062,2.625 L12.5,2.625 L12.5,0 L13.156,0 L13.156,5.938 L12.5,5.938 L12.5,3.25 L9.094,3.25 L9.094,5.938 L8.406,5.938 L8.406,0 Z M17.344,0 L21.625,0 L21.625,0.594 L18.031,0.594 L18.031,2.625 L21.219,2.625 L21.219,3.219 L18.031,3.219 L18.031,5.282 L21.656,5.282 L21.656,5.938 L17.343,5.938 L17.344,0 Z M86.938,13.875 C86.938,13.866 86.938,13.855 86.938,13.844 C86.938,13.067 87.568,12.438 88.344,12.438 C89.12,12.438 89.75,13.068 89.75,13.844 C89.75,14.621 89.121,15.25 88.344,15.25 L88.313,15.25 C87.563,15.25 86.938,14.656 86.938,13.906 L86.938,13.875 Z M89.531,13.875 L89.531,13.844 C89.531,13.188 88.999,12.656 88.343,12.656 C87.687,12.656 87.155,13.188 87.155,13.844 C87.155,14.5 87.687,15.032 88.343,15.032 L88.343,15.032 C88.999,15.032 89.499,14.501 89.531,13.876 L89.531,13.875 Z M89.063,14.594 L88.782,14.594 L88.344,13.906 L88.063,13.906 L88.063,14.594 L87.875,14.594 L87.875,13.094 L88.531,13.094 C88.781,13.094 89.062,13.094 89.062,13.5 C89.062,13.906 88.843,13.938 88.593,13.938 L89.063,14.594 Z M88.344,13.688 C88.532,13.688 88.844,13.688 88.844,13.469 C88.844,13.25 88.625,13.313 88.5,13.313 L88.062,13.313 L88.062,13.688 L88.344,13.688 Z" id="linq" fill="#343840"></path>
</svg>
