<?xml version="1.0" encoding="UTF-8"?>
<svg width="212px" height="61px" viewBox="0 0 212 61" version="1.1" xmlns="http://www.w3.org/2000/svg" xmlns:xlink="http://www.w3.org/1999/xlink">
	<title>Lumiere Place</title>
  <path d="M30.5,27.8 L6.9,27.8 L6.9,5.6 L1,5.6 L1,32.8 L30.5,32.8 L30.5,27.8 Z M35.4,31.2 C38.7,32.9 42.7,33.4 46.2,33.4 C49.8,33.4 53.8,32.9 57,31.2 C60.7,29.3 62.9,25.5 62.7,21.4 L62.7,5.6 L56.8,5.6 L56.8,21.4 C56.9,23.5 55.9,25.6 54.2,26.8 C52.5,28 49.7,28.6 46.2,28.6 C42.7,28.6 39.9,28 38.2,26.8 C36.4,25.6 35.4,23.6 35.6,21.4 L35.6,5.6 L29.7,5.6 L29.7,21.4 C29.6,25.5 31.8,29.3 35.4,31.2 L35.4,31.2 Z M72.2,13.8 L82.2,32.7 L86.6,32.7 L96.5,13.8 L96.5,32.7 L102.1,32.7 L102.1,5.6 L94.7,5.6 L84.4,25.2 L74,5.6 L66.6,5.6 L66.6,32.8 L72.2,32.8 L72.2,13.8 L72.2,13.8 Z M106.1,5.6 L112,5.6 L112,32.8 L106.1,32.8 L106.1,5.6 Z M121.7,21.1 L140.9,21.1 L140.9,16.1 L121.7,16.1 L121.7,10.4 L144.7,10.4 L144.7,5.4 L115.8,5.4 L115.8,32.6 L145.2,32.6 L145.2,27.6 L121.7,27.6 L121.7,21.1 L121.7,21.1 Z M132.3,4.3 L127.9,0 L122.6,0 L127.9,4.3 L132.3,4.3 Z M173.7,32.8 L181.2,32.8 L171.2,21.5 C172.7,21.3 174.1,20.8 175.5,20.1 C179,18.3 180.4,14 178.7,10.5 C177.9,8.8 176.4,7.6 174.7,7 C172.1,6.1 169.4,5.6 166.6,5.7 L148.2,5.7 L148.2,32.9 L154.1,32.9 L154.1,21.9 L164.2,21.9 L173.7,32.8 Z M154,10.5 L165.7,10.5 C167.8,10.4 169.8,10.6 171.8,11.2 C172.3,11.4 172.8,11.7 173.2,12.1 C173.8,13 173.8,14.2 173.2,15.1 C172.5,15.8 171.6,16.3 170.6,16.4 C169,16.7 167.3,16.8 165.6,16.8 L154,16.8 L154,10.5 Z M211.6,27.8 L188.1,27.8 L188.1,21.1 L207.3,21.1 L207.3,16.1 L188.1,16.1 L188.1,10.4 L211.1,10.4 L211.1,5.4 L182.2,5.4 L182.2,32.6 L211.6,32.6 L211.6,27.8 Z M5.7,52.3 L15.1,52.3 C17.4,52.4 19.6,52 21.7,51.1 C24.7,49.6 25.8,46 24.3,43 C23.7,41.9 22.8,40.9 21.7,40.4 C19.6,39.5 17.3,39.1 15.1,39.2 L0.7,39.2 L0.7,60.4 L5.7,60.4 L5.7,52.3 Z M5.7,43.5 L14.4,43.5 C16,43.4 17.6,43.6 19.1,44.1 C19.8,44.3 20.2,45 20.2,45.7 C20.3,46.4 19.8,47.1 19.1,47.3 C17.6,47.8 16,48 14.4,47.9 L5.7,47.9 L5.7,43.5 Z M27,39.2 L27,60.4 L50,60.4 L50,56.1 L32,56.1 L32,39.2 L27,39.2 Z M80.7,60.4 L67.7,39.2 L63,39.2 L62.7,39.7 L49.9,60.4 L55.6,60.4 L58.6,55.5 L72,55.5 L74.9,60.4 L80.7,60.4 Z M61.2,51.2 L65.3,44.4 L69.4,51.2 L61.2,51.2 Z M93.7,60.9 L93.8,60.9 C99.4,60.9 104.2,59.2 106.8,54.9 L107.5,53.8 L106.2,53.3 L102.9,52 L102.4,52.8 C100.7,55.3 98.1,56.7 93.9,56.7 C90.6,56.7 88.3,55.9 86.8,54.8 C85.4,53.7 84.6,52.1 84.6,50.3 C84.5,48.3 85.3,46.3 86.8,45 C88.2,43.8 90.5,43.1 93.6,43.1 C97.8,43.1 100.7,44.3 102.1,46.9 L102.6,47.8 L107.1,46.1 L106.5,45 C104.1,40.6 98.7,39 93.6,39 C89.6,39 86.1,39.9 83.6,41.8 C79,45.4 78.2,52 81.8,56.6 C82.2,57.1 82.7,57.6 83.1,58 C85.5,59.7 89,60.9 93.7,60.9 L93.7,60.9 Z M114.8,51.6 L129.4,51.6 L129.4,47.3 L114.8,47.3 L114.8,43.5 L132.3,43.5 L132.3,39.2 L109.8,39.2 L109.8,60.4 L132.7,60.4 L132.7,56.1 L114.9,56.1 C114.8,56.1 114.8,51.6 114.8,51.6 Z M137.3,41.2 C137.2,41.1 137,41.1 136.9,41.1 L136.5,41 C136.4,41 136.2,40.9 136.1,40.9 C136,40.9 135.9,40.8 135.8,40.7 C135.7,40.6 135.7,40.5 135.7,40.4 C135.7,40.3 135.7,40.2 135.8,40.1 C135.8,40 135.9,40 136,39.9 C136.1,39.9 136.2,39.8 136.3,39.8 C136.4,39.8 136.5,39.8 136.6,39.8 C136.8,39.8 137.1,39.9 137.2,40 C137.4,40.1 137.5,40.4 137.5,40.6 L138,40.6 C138,40.4 138,40.2 137.9,40.1 C137.8,40 137.7,39.8 137.6,39.7 C137.5,39.6 137.3,39.5 137.2,39.5 C137,39.5 136.8,39.4 136.7,39.4 C136.5,39.4 136.4,39.4 136.2,39.5 C136,39.5 135.9,39.6 135.8,39.7 C135.7,39.8 135.6,39.9 135.5,40 C135.4,40.2 135.4,40.3 135.4,40.5 C135.4,40.7 135.4,40.8 135.5,40.9 C135.6,41 135.7,41.1 135.8,41.2 C135.9,41.3 136,41.3 136.2,41.4 L136.6,41.5 L137.1,41.6 C137.2,41.6 137.4,41.7 137.5,41.7 C137.6,41.7 137.7,41.8 137.8,41.9 C137.9,42 137.9,42.1 137.9,42.2 C137.9,42.3 137.9,42.4 137.8,42.5 C137.7,42.6 137.7,42.7 137.6,42.7 C137.5,42.8 137.4,42.8 137.3,42.8 C137.2,42.8 137.1,42.8 137,42.8 C136.9,42.8 136.7,42.8 136.6,42.8 C136.5,42.8 136.4,42.7 136.2,42.6 C136.1,42.5 136,42.4 136,42.3 C135.9,42.2 135.9,42 135.9,41.9 L135,41.9 C135,42.1 135,42.3 135.1,42.5 C135.2,42.7 135.3,42.8 135.4,42.9 C135.5,43 135.7,43.1 135.9,43.1 C136.1,43.2 136.3,43.2 136.5,43.2 C136.7,43.2 136.8,43.2 137,43.1 C137.2,43.1 137.3,43 137.5,42.9 C137.6,42.8 137.8,42.7 137.8,42.6 C137.9,42.4 137.9,42.3 137.9,42.1 C138.1,41.9 137.9,41.6 137.7,41.4 C137.6,41.3 137.4,41.3 137.3,41.2 Z M140.6,42.6 L139.4,39.4 L138.7,39.4 L138.7,43.2 L139.2,43.2 L139.2,40.1 L139.2,40.1 L140.4,43.2 L140.8,43.2 L142,40.1 L142,40.1 L142,43.2 L142.5,43.2 L142.5,39.4 L141.8,39.4 L140.6,42.6 L140.6,42.6 Z" id="lumiere" fill="#343840"></path>
</svg>
